<?xml version="1.0" encoding="utf-8"?>
<!-- Generator: Adobe Illustrator 22.0.1, SVG Export Plug-In . SVG Version: 6.00 Build 0)  -->
<svg version="1.0" id="Layer_1" xmlns="http://www.w3.org/2000/svg" xmlns:xlink="http://www.w3.org/1999/xlink" x="0px" y="0px"
	 viewBox="0 0 36 36" style="enable-background:new 0 0 36 36;" xml:space="preserve">
<style type="text/css">
	.st0{fill:#5378D6;}
</style>
<title>6F5D15F0-DEF6-45E8-8C32-17F8ED9DDB2E</title>
<desc>Created with sketchtool.</desc>
<g id="Iconography">
	<g id="UI-Icons" transform="translate(-789.000000, -602.000000)">
		<g id="Iconography-_x2F_-plus_x5F_in_x5F_circle" transform="translate(783.000000, 596.000000)">
			<g id="Color-2" transform="translate(5.760000, 5.760000)">
				<g id="Mask_1_">
					<path id="path-3_1_" class="st0" d="M18.2,3.2c-8.3,0-15,6.7-15,15s6.7,15,15,15s15-6.7,15-15S26.5,3.2,18.2,3.2 M18.2,36.2
						c-9.9,0-18-8.1-18-18s8.1-18,18-18s18,8.1,18,18S28.2,36.2,18.2,36.2"/>
				</g>
			</g>
			<g id="Color-1" transform="translate(16.320000, 16.320000)">
				<g id="Mask_2_">
					<polygon id="path-5_1_" class="st0" points="15.2,6.2 9.2,6.2 9.2,0.2 6.2,0.2 6.2,6.2 0.2,6.2 0.2,9.2 6.2,9.2 6.2,15.2 
						9.2,15.2 9.2,9.2 15.2,9.2 					"/>
				</g>
			</g>
		</g>
	</g>
</g>
</svg>
